Coordinates
version=1
nRows=18
nColumns=19
inDegrees=yes

Units are S.I. units (second, meters, Newtons, ...)
If the header above contains a line with 'inDegrees', this indicates whether rotational values are in degrees (yes) or radians (no).

endheader
time	pelvis_tilt	pelvis_list	pelvis_rotation	pelvis_tx	pelvis_ty	pelvis_tz	hip_flexion_r	hip_adduction_r	hip_rotation_r	knee_angle_r	knee_angle_r_beta	ankle_angle_r	hip_flexion_l	hip_adduction_l	hip_rotation_l	knee_angle_l	knee_angle_l_beta	ankle_angle_l
     13.36000000	     -3.52308810	     13.24588260	      6.43176981	      2.41266353	      0.91475216	      0.93584417	    -24.09657606	    -17.16968261	    -26.12215228	     71.30117426	      1.24444025	    -11.31439346	     28.09407886	     18.39915074	    -13.48017167	     11.27181050	      0.19673021	      4.86312451
     13.36666667	     -2.81099707	     13.94213446	      6.83136333	      2.41079091	      0.91174559	      0.93569130	    -23.04630614	    -17.78423421	    -24.86730831	     76.05734030	      1.32745101	    -10.83418202	     27.51009272	     18.91649197	    -14.60423585	     14.11377125	      0.24633178	      4.55578883
     13.37333333	     -1.98996381	     14.69912785	      7.27340380	      2.40884147	      0.90862137	      0.93574633	    -22.08417596	    -18.44276119	    -23.83719587	     80.67717324	      1.40808230	    -10.33446005	     26.78923531	     19.41573607	    -15.51729446	     17.31734174	      0.30224463	      4.36453220
     13.38000000	     -0.99104193	     15.58393781	      7.79851658	      2.40691361	      0.90548260	      0.93592353	    -21.37259600	    -19.20113805	    -23.11911641	     85.09226375	      1.48514017	     -9.78347171	     25.76582711	     20.02072910	    -16.08238970	     20.67825201	      0.36090358	      4.38748790
     13.38666667	     -0.74570095	     16.01218837	      8.35551674	      2.40467259	      0.90155549	      0.93616088	    -19.39487502	    -19.57134002	    -21.85789457	     89.54890924	      1.56292331	     -9.26619629	     25.61383538	     20.15631155	    -16.41562931	     24.34684525	      0.42493261	      4.80687350
     13.39333333	     -0.02087148	     16.71754962	      8.98341652	      2.40244009	      0.89817797	      0.93646285	    -18.10361633	    -20.20023306	    -21.06444373	     93.67689325	      1.63497022	     -8.63546036	     24.69856345	     20.63337374	    -16.24427438	     27.80477647	      0.48528490	      5.60877889
     13.40000000	     -0.27070887	     16.75553436	      9.71124383	      2.39981958	      0.89409911	      0.93657709	    -15.19267786	    -20.23964620	    -19.61275429	     97.79024253	      1.70676171	     -8.16726400	     24.86218047	     20.56702455	    -15.74937290	     31.37490974	      0.54759548	      6.86824754
     13.40666667	     -0.37993260	     16.81924459	     10.42122026	      2.39703474	      0.89052112	      0.93669753	    -12.34162116	    -20.36836811	    -18.24823255	    101.62350649	      1.77366479	     -7.68966736	     24.66734339	     20.60556979	    -14.94116591	     34.63376885	      0.60447330	      8.50920044
     13.41333333	     -0.68826490	     16.64733089	     11.09559604	      2.39401464	      0.88718833	      0.93677158	     -8.98327107	    -20.32876077	    -16.68609889	    105.21166036	      1.83628988	     -7.27021176	     24.53985596	     20.49256436	    -13.90717211	     37.62387134	      0.65666043	     10.48589846
     13.42000000	     -1.15030718	     16.22735800	     11.65924969	      2.39077687	      0.88424703	      0.93685168	     -5.13532390	    -20.09980245	    -14.90265815	    108.50641612	      1.89379422	     -6.91486575	     24.42007598	     20.17922519	    -12.75345751	     40.27060852	      0.70285471	     12.70863664
     13.42666667	     -1.63316235	     15.67470561	     12.05457718	      2.38747398	      0.88183730	      0.93699448	     -1.02058615	    -19.77979901	    -12.97340121	    111.43954822	      1.94498703	     -6.55676922	     24.11558155	     19.72428994	    -11.58751638	     42.48585065	      0.74151798	     15.06561260
     13.43333333	     -2.37676425	     14.88229516	     12.28857031	      2.38408950	      0.87973717	      0.93718652	      3.67885298	    -19.26225868	    -10.86072055	    114.01080956	      1.98986401	     -6.31902464	     23.90723187	     19.03765626	    -10.45306539	     44.26565297	      0.77258139	     17.43290283
     13.44000000	     -3.34011117	     14.02500794	     12.45973938	      2.38086145	      0.87795880	      0.93721807	      8.70438114	    -18.75704702	     -8.78149798	    116.14767475	      2.02715934	     -6.10928954	     23.66061704	     18.31772833	     -9.33259707	     45.53043762	      0.79465605	     19.69158592
     13.44666667	     -4.02681244	     13.16180706	     12.32039309	      2.37805083	      0.87711256	      0.93751636	     13.48762263	    -18.11163460	     -6.69622071	    117.73207787	      2.05481239	     -5.87216290	     22.81846294	     17.42870478	     -8.39751394	     46.21969201	      0.80668580	     21.77648290
     13.45333333	     -3.73922208	     12.60449007	     12.24157066	      2.37616058	      0.87829100	      0.93736117	     16.71928415	    -17.82740654	     -5.32412147	    118.50969766	      2.06838442	     -5.43409569	     20.38553877	     16.78384839	     -7.12553226	     46.12554181	      0.80504257	     23.73469971
     13.46000000	     -4.38658000	     11.64888946	     11.38221635	      2.37433250	      0.87860573	      0.93816720	     21.58347290	    -16.74021952	     -2.99359602	    119.09291931	      2.07856356	     -5.22360859	     19.03063068	     15.43254963	     -7.09512521	     45.79657268	      0.79930098	     25.04361512
     13.46666667	     -4.59717822	     10.98626088	     10.80456162	      2.37321728	      0.87999457	      0.93820568	     25.40781500	    -16.15616210	     -1.42159644	    119.08025738	      2.07834257	     -4.74301518	     16.73448422	     14.52178421	     -6.61096098	     44.78865517	      0.78170950	     26.10451991
     13.47333333	     -4.74836787	     10.40319795	     10.05267485	      2.37264900	      0.88182621	      0.93820070	     28.99609475	    -15.56285844	      0.05550116	    118.63938854	      2.07064795	     -4.13272859	     14.11781321	     13.65342612	     -6.36255621	     43.27700306	      0.75532619	     26.65381523
